<?xml version="1.0" encoding="utf-8"?>
<!-- Generator: Adobe Illustrator 23.1.0, SVG Export Plug-In . SVG Version: 6.00 Build 0)  -->
<svg version="1.1" id="Layer_1" xmlns="http://www.w3.org/2000/svg" xmlns:xlink="http://www.w3.org/1999/xlink" x="0px" y="0px"
	 viewBox="0 0 48.1 37.1" style="enable-background:new 0 0 48.1 37.1;" xml:space="preserve">
<style type="text/css">
	.st0{fill-rule:evenodd;clip-rule:evenodd;fill:#064C86;}
</style>
<title>AG-Logo</title>
<path class="st0" d="M41,25c-2.1-1.1-5.4-0.4-8.9,0.3c-3.8,0.8-8,1.7-11.3,0.2c0.3,1.3,1.1,2.3,2.2,2.9c2,1,5.1,0.5,8.5-0.2
	c-3.1,4.3-8,6.9-13.4,6.9h-0.1c-9-0.2-16.2-7.7-16-16.9C2.3,9.5,9.4,2.3,18.2,2.1h0.1c5.5,0,10.6,2.8,13.7,7.3
	c-3.8,0.8-7.9,1.6-11.1,0.2c0.3,1.3,1.1,2.3,2.2,2.9c2.1,1.1,5.4,0.4,8.9-0.3c3.8-0.8,8-1.7,11.2-0.2c-0.3-1.3-1.1-2.3-2.2-2.9
	c-1.7-0.9-4.2-0.6-6.9-0.1C30.8,3.4,24.7,0,18.2,0h-0.1C7.9,0.2-0.2,8.7,0,19c0.2,9.9,8.3,18,18.2,18.1h0.1c6.7,0,12.8-3.6,16.1-9.5
	l-0.2-0.1c3.2-0.6,6.4-0.9,9,0.2C42.9,26.6,42.1,25.6,41,25z M29.7,16.5C23,17.6,16,18.8,11.1,16c0.6,2.6,1.8,4.3,3.7,5.3
	c3.4,1.7,8.8,0.8,14.7-0.2c6.8-1.1,13.7-2.2,18.6,0.6c-0.6-2.6-1.8-4.3-3.7-5.3C41,14.7,35.5,15.6,29.7,16.5z"/>
</svg>
