<svg id="Layer_1" data-name="Layer 1" xmlns="http://www.w3.org/2000/svg" viewBox="0 0 200 47.13"><defs><style>.cls-1,.cls-2{fill:#064c86;}.cls-1{fill-rule:evenodd;}</style></defs><title>AG-Logo</title><path class="cls-1" d="M52.49,31.69c-2.66-1.38-6.86-.51-11.3.41-4.81,1-10.2,2.12-14.26.21A5.94,5.94,0,0,0,29.77,36c2.56,1.33,6.55.57,10.81-.31a21,21,0,0,1-16.95,8.77h-.07A20.9,20.9,0,0,1,23.5,2.67h.06A21,21,0,0,1,41,12c-4.76,1-10,2-14.06.16a6,6,0,0,0,2.84,3.7c2.66,1.37,6.86.5,11.3-.42,4.81-1,10.18-2.11,14.25-.21a6,6,0,0,0-2.83-3.69c-2.14-1.1-5.26-.76-8.7-.11A23.63,23.63,0,0,0,23.56,0h-.07a23.57,23.57,0,0,0,.07,47.13h.08a23.62,23.62,0,0,0,20.46-12L43.9,35c4-.75,8.14-1.18,11.42.35A6,6,0,0,0,52.49,31.69ZM38.15,21c-8.55,1.4-17.37,2.85-23.57-.69.74,3.27,2.29,5.46,4.7,6.66,4.34,2.16,11.25,1,18.57-.17,8.56-1.4,17.39-2.84,23.59.69-.74-3.27-2.29-5.46-4.71-6.66C52.39,18.64,45.48,19.77,38.15,21Z"/><path class="cls-2" d="M83.85,16,78.94,4.31H78L71.49,18.77h1.14l1.8-4h5.83l.5,1.23a4.2,4.2,0,0,0,1.82,2.26,5.3,5.3,0,0,0,2.5.58,3.83,3.83,0,0,0,1-.11V18.2C85.16,18.1,84.4,17.36,83.85,16Zm-9-2.22,2.54-5.71,2.41,5.71ZM89,4.57a2.3,2.3,0,0,0-1.2-.26H85.14V5h.22a1.32,1.32,0,0,1,1.23.53,3.53,3.53,0,0,1,.3,1.66V18.77h2.85V7.16a6.8,6.8,0,0,0-.17-1.72A1.49,1.49,0,0,0,89,4.57Zm7.41,3.68c-1.74,0-2.84.26-3.29.77a1.94,1.94,0,0,0-.45.92,7.52,7.52,0,0,0-.1,1.27h1.21a2.55,2.55,0,0,1,.79-1.56,2.28,2.28,0,0,1,1.4-.41,1.74,1.74,0,0,1,1.56.8,5.14,5.14,0,0,1,.52,2.7h-.33a13.43,13.43,0,0,0-3.59.38,3.23,3.23,0,0,0-1.81,1.09A3.08,3.08,0,0,0,91.78,16a2.66,2.66,0,0,0,1,2.16,4.25,4.25,0,0,0,2.75.8,3.57,3.57,0,0,0,1.61-.35,2.6,2.6,0,0,0,1-.86h.11l.77,1h1.86V12.85A4.68,4.68,0,0,0,99.72,9.4,4.56,4.56,0,0,0,96.38,8.25ZM98,16.47a2.65,2.65,0,0,1-.71,1,1.64,1.64,0,0,1-1.15.44,1.26,1.26,0,0,1-1-.48A2.2,2.2,0,0,1,94.73,16a2.08,2.08,0,0,1,.71-1.74,3.62,3.62,0,0,1,2.25-.56H98Zm17-8.22a4.48,4.48,0,0,0-1.86.34,4.07,4.07,0,0,0-1.25.91,3.49,3.49,0,0,0-1.15-.84,4.27,4.27,0,0,0-4.63.64h-.09a1.91,1.91,0,0,0-1.86-.83H102v.66h.22a1.25,1.25,0,0,1,1.21.54,3.46,3.46,0,0,1,.3,1.65v7.45h2.85V10.05a2.69,2.69,0,0,1,.72-.49,1.81,1.81,0,0,1,.81-.21,1.46,1.46,0,0,1,1.27.7,4,4,0,0,1,.48,2.21v6.51h2.85V12.28a5,5,0,0,0-.35-2.1,2,2,0,0,1,.79-.6,2.48,2.48,0,0,1,1.09-.23,1.46,1.46,0,0,1,1.27.7,3.89,3.89,0,0,1,.49,2.21v6.51h2.84V12.28C118.87,9.6,117.6,8.25,115,8.25Zm10.3,0c-1.74,0-2.84.26-3.29.77a1.94,1.94,0,0,0-.45.92,7.52,7.52,0,0,0-.1,1.27h1.21a2.55,2.55,0,0,1,.79-1.56,2.28,2.28,0,0,1,1.4-.41,1.72,1.72,0,0,1,1.55.8,5.12,5.12,0,0,1,.53,2.7h-.33a13.43,13.43,0,0,0-3.59.38,3.19,3.19,0,0,0-1.81,1.09,3.08,3.08,0,0,0-.51,1.82,2.66,2.66,0,0,0,1,2.16,4.25,4.25,0,0,0,2.75.8,3.57,3.57,0,0,0,1.61-.35,2.6,2.6,0,0,0,1-.86h.11l.76,1h1.87V12.85a4.72,4.72,0,0,0-1.15-3.45A4.56,4.56,0,0,0,125.34,8.25ZM127,16.47a2.65,2.65,0,0,1-.71,1,1.66,1.66,0,0,1-1.15.44,1.23,1.23,0,0,1-1.05-.48,2.2,2.2,0,0,1-.38-1.38,2.11,2.11,0,0,1,.7-1.74,3.66,3.66,0,0,1,2.26-.56H127Zm7.47-11.9a2.34,2.34,0,0,0-1.21-.26h-2.63V5h.22a1.3,1.3,0,0,1,1.23.53,3.51,3.51,0,0,1,.31,1.66V18.77h2.84V7.16A6.36,6.36,0,0,0,135,5.44,1.48,1.48,0,0,0,134.45,4.57Zm16,9.29v3.9a7,7,0,0,1-3,.57A4.26,4.26,0,0,1,144,16.7q-1.31-1.63-1.3-5.38A8.34,8.34,0,0,1,143.9,6.7a4,4,0,0,1,3.64-1.84,4.57,4.57,0,0,1,3,.92,4.89,4.89,0,0,1,1.52,2.91h.66a13.52,13.52,0,0,0-.1-1.82,2.43,2.43,0,0,0-.47-1.22,4.68,4.68,0,0,0-2-1.27,9.4,9.4,0,0,0-3.29-.51,7.29,7.29,0,0,0-3.78,1,6.69,6.69,0,0,0-2.55,2.67,8,8,0,0,0-.9,3.8,8,8,0,0,0,1,4,7.42,7.42,0,0,0,2.83,2.84,7.87,7.87,0,0,0,4,1,12.77,12.77,0,0,0,3.13-.35,9.21,9.21,0,0,0,2.67-1.11V13.82c0-1.39.47-2.08,1.4-2.08v-.55a5.43,5.43,0,0,0-3.37.75A2.46,2.46,0,0,0,150.49,13.86Zm12.82-5.17a2.64,2.64,0,0,0-1.56-.44,4.11,4.11,0,0,0-2.76,1,1.36,1.36,0,0,0-.66-.62,2.93,2.93,0,0,0-1.18-.19H155v.66h.21a1.26,1.26,0,0,1,1.22.54,3.46,3.46,0,0,1,.3,1.65v7.45h2.84V11.41c0-.24,0-.59-.08-1.05a2.6,2.6,0,0,1,2-.68,1.55,1.55,0,0,1,.87.25,2.31,2.31,0,0,1,.64.6l1.11-.85a2.08,2.08,0,0,0-.17-.37A1.93,1.93,0,0,0,163.31,8.69Zm9.45.27a5.84,5.84,0,0,0-5.58,0,4.78,4.78,0,0,0-1.83,1.93,5.73,5.73,0,0,0-.64,2.73,5.73,5.73,0,0,0,.64,2.73,4.7,4.7,0,0,0,1.83,1.92,5.77,5.77,0,0,0,5.58,0,4.7,4.7,0,0,0,1.83-1.92,5.85,5.85,0,0,0,.64-2.73,5.85,5.85,0,0,0-.64-2.73A4.78,4.78,0,0,0,172.76,9Zm-1.08,7.84A1.86,1.86,0,0,1,170,18a1.84,1.84,0,0,1-1.71-1.2,7.37,7.37,0,0,1-.59-3.18,7.34,7.34,0,0,1,.59-3.18A1.84,1.84,0,0,1,170,9.24a1.86,1.86,0,0,1,1.71,1.2,7.34,7.34,0,0,1,.59,3.18A7.37,7.37,0,0,1,171.68,16.8Zm12.55-.22a3.44,3.44,0,0,1-.78,1,1.75,1.75,0,0,1-1.19.44,1.56,1.56,0,0,1-1.4-.69A4.36,4.36,0,0,1,180.4,15V11.32a6.29,6.29,0,0,0-.18-1.72,1.48,1.48,0,0,0-.59-.87,2.34,2.34,0,0,0-1.21-.26H175.8v.66H176a1.28,1.28,0,0,1,1.23.54,3.32,3.32,0,0,1,.31,1.65V15a4.15,4.15,0,0,0,1,3.06,4.26,4.26,0,0,0,3.07,1,3.62,3.62,0,0,0,2.74-1.21h.11l.76,1h1.87V8.47h-2.85Zm14.58-6.83a4.12,4.12,0,0,0-3.41-1.5,4.38,4.38,0,0,0-3,1.14,1.48,1.48,0,0,0-.66-.71,2.65,2.65,0,0,0-1.18-.21h-2.17v.66h.22a1.27,1.27,0,0,1,1.22.54,3.6,3.6,0,0,1,.29,1.65V22.93H193v-4.6a3.28,3.28,0,0,0,1,.46,4.42,4.42,0,0,0,1.31.2,4.23,4.23,0,0,0,3.49-1.5A6,6,0,0,0,200,13.62,6.06,6.06,0,0,0,198.81,9.75Zm-4,8.25a3,3,0,0,1-1-.2,2.36,2.36,0,0,1-.81-.46V10a2.89,2.89,0,0,1,2-.74,1.66,1.66,0,0,1,1.58,1.18,8.48,8.48,0,0,1,.5,3.2Q197,18,194.85,18Z"/><path class="cls-2" d="M93.91,28.9a3.62,3.62,0,0,0-3.82,3.88v1.75a1.61,1.61,0,0,1-.34,1.16,1.53,1.53,0,0,1-1.13.35H85.81a1.53,1.53,0,0,1-1.13-.35,1.61,1.61,0,0,1-.34-1.16V25l-2.62,1.41V36.84a3.12,3.12,0,0,1-.91,2.35,3.39,3.39,0,0,1-2.43.86A3.15,3.15,0,0,1,75,36.67a5.77,5.77,0,0,1,.86-3.13l-2.6.59a5.8,5.8,0,0,0,.5,6.48,5.66,5.66,0,0,0,4.62,2A6.26,6.26,0,0,0,82,41.54a5.28,5.28,0,0,0,2.16-3.28,3.69,3.69,0,0,0,1.39.32h3.31a4,4,0,0,0,2.44-.74,4.75,4.75,0,0,0,2.75.74,3.71,3.71,0,0,0,2.83-1.18,5.18,5.18,0,0,0,1.24-3.67,5.27,5.27,0,0,0-1-3.3A3.82,3.82,0,0,0,93.91,28.9ZM94,36c-.82,0-1.24-.39-1.24-1.18V32.74c0-.92.4-1.38,1.18-1.38,1.08,0,1.62.76,1.62,2.29S95,36,94,36Z"/><path class="cls-2" d="M109.67,34.19a2,2,0,0,1-.41,1.43,1.86,1.86,0,0,1-1.37.42h-1V27.77l-2.65,1.4V36h-2.77l-1.32,2.54H108a4.19,4.19,0,0,0,3-1.12,4.36,4.36,0,0,0,1.24-3.25V25l-2.65,1.41Z"/><path class="cls-2" d="M107.87,25.23h-2.08a1,1,0,0,1-.27-.65q0-.63.69-.63a1.58,1.58,0,0,1,1,.44V23.17a1.88,1.88,0,0,0-1.18-.44,1.65,1.65,0,0,0-1.19.48,1.61,1.61,0,0,0-.49,1.16,1.82,1.82,0,0,0,.23.86H104l-.67,1.22h3.9Z"/><polygon class="cls-2" points="116.07 26.45 116.07 38.58 118.72 38.58 118.72 25.04 116.07 26.45"/><path class="cls-2" d="M129,26.72c.91,0,1.36-.47,1.36-1.41A1.26,1.26,0,0,0,129,24a1.22,1.22,0,0,0-1.39,1.36,1.39,1.39,0,0,0,.38,1A1.37,1.37,0,0,0,129,26.72Z"/><path class="cls-2" d="M132.23,26.72a1.23,1.23,0,0,0,1.37-1.41A1.27,1.27,0,0,0,132.23,24a1.21,1.21,0,0,0-1.38,1.36,1.29,1.29,0,0,0,1.38,1.41Z"/><path class="cls-2" d="M142.29,35.38a2.35,2.35,0,0,1-.72-1.82,2.17,2.17,0,0,1,.58-1.6,2,2,0,0,1,1.54-.6,4.39,4.39,0,0,1,3.34,1.8V30.83a4.3,4.3,0,0,0-3.63-1.93A4.42,4.42,0,0,0,140.48,30a4.35,4.35,0,0,0-1.55,3.53,5.6,5.6,0,0,0,.58,2.56h-3.73a1.27,1.27,0,0,1-1.49-1.51v-7l-2.63,1.38v.55a3.31,3.31,0,0,0-1.42-.3,3.68,3.68,0,0,0-2.63,1.1,4.88,4.88,0,0,0-.39,6.25A3.71,3.71,0,0,0,130.3,38a3.5,3.5,0,0,0,2.2-.69,3.74,3.74,0,0,0,3,1.3H148V36h-3.75A2.86,2.86,0,0,1,142.29,35.38Zm-11.84.34a1.39,1.39,0,0,1-1.16-.54,2.37,2.37,0,0,1-.42-1.47,2.44,2.44,0,0,1,.43-1.49,1.35,1.35,0,0,1,1.13-.57,1.88,1.88,0,0,1,1.23.46v2.54a3.33,3.33,0,0,0,0,.53A1.52,1.52,0,0,1,130.45,35.72Z"/><path class="cls-2" d="M181.51,40.49a1.29,1.29,0,0,0-1.39,1.36,1.41,1.41,0,0,0,.38,1,1.37,1.37,0,0,0,1,.38c.91,0,1.36-.47,1.36-1.41a1.25,1.25,0,0,0-1.36-1.36Z"/><path class="cls-2" d="M198.24,30.43A3.83,3.83,0,0,0,195,28.9a3.62,3.62,0,0,0-3.82,3.88v1.75a1.66,1.66,0,0,1-.33,1.16,1.55,1.55,0,0,1-1.14.35h-2.39a5.59,5.59,0,0,1-2.77-.51,8.86,8.86,0,0,0,.88-1v-1a10.43,10.43,0,0,0-2.75-3.4,5.14,5.14,0,0,0-3.19-1.2,5.3,5.3,0,0,0-4,1.93v2.33a5.74,5.74,0,0,1,3.67-1.82c1.36,0,2.51.83,3.46,2.49A7.88,7.88,0,0,1,176.77,36H173a1.57,1.57,0,0,1-1.14-.35,1.61,1.61,0,0,1-.35-1.16v-.61a5.67,5.67,0,0,0-1-3.46,4.25,4.25,0,0,0-6.25-.36A5.38,5.38,0,0,0,163,33.92v.61a1.61,1.61,0,0,1-.34,1.16,1.53,1.53,0,0,1-1.13.35h-3.21V32.78a3.91,3.91,0,0,0-.9-2.68,3.67,3.67,0,0,0-2.92-1.2,3.84,3.84,0,0,0-2.94,1.18,5.11,5.11,0,0,0-1.26,3.65,4.54,4.54,0,0,0,4.33,4.7l.54.06.53,0a1.61,1.61,0,0,1-.75,1.15,2.62,2.62,0,0,1-1.56.48,4.47,4.47,0,0,1-2.27-.65v2.29a5.23,5.23,0,0,0,2.58.71,4.87,4.87,0,0,0,2.94-.92,4,4,0,0,0,1.68-3h3.46a4,4,0,0,0,2.5-.78,3.83,3.83,0,0,0,3,1.2,3.92,3.92,0,0,0,3-1.2,3.81,3.81,0,0,0,2.48.78h4a11.14,11.14,0,0,0,6-1.66,4.79,4.79,0,0,0,1.86,1.29,8,8,0,0,0,2.65.37H190a4,4,0,0,0,2.43-.74,4.75,4.75,0,0,0,2.75.74A3.7,3.7,0,0,0,198,37.4a5.18,5.18,0,0,0,1.24-3.67A5.32,5.32,0,0,0,198.24,30.43ZM155.74,36a7.85,7.85,0,0,1-1-.11A2,2,0,0,1,153,33.65c0-1.53.53-2.29,1.59-2.29q1.2,0,1.2,1.38Zm11.56.44q-1.62,0-1.62-2.61t1.62-2.49c1.06,0,1.6.83,1.6,2.49S168.36,36.46,167.3,36.46ZM195.07,36c-.83,0-1.24-.39-1.24-1.18V32.74q0-1.38,1.17-1.38c1.08,0,1.62.76,1.62,2.29S196.1,36,195.07,36Z"/></svg>